Coordinates
version=1
nRows=20
nColumns=38
inDegrees=no

Units are S.I. units (second, meters, Newtons, ...)
If the header above contains a line with 'inDegrees', this indicates whether rotational values are in degrees (yes) or radians (no).

endheader
time	pelvis_tilt	pelvis_list	pelvis_rotation	pelvis_tx	pelvis_ty	pelvis_tz	hip_flexion_r	hip_adduction_r	hip_rotation_r	knee_angle_r	ankle_angle_r	subtalar_angle_r	mtp_angle_r	hip_flexion_l	hip_adduction_l	hip_rotation_l	knee_angle_l	ankle_angle_l	subtalar_angle_l	mtp_angle_l	lumbar_extension	lumbar_bending	lumbar_rotation	arm_flex_r	arm_add_r	arm_rot_r	elbow_flex_r	pro_sup_r	wrist_flex_r	wrist_dev_r	arm_flex_l	arm_add_l	arm_rot_l	elbow_flex_l	pro_sup_l	wrist_flex_l	wrist_dev_l
1.87	2.93299	1.4206	-1.42786	0.815033	1.02808	1.0002	-0.315037	-0.0337815	-0.379919	0.387525	0.24386	0	0	0.226913	-0.0317984	-0.273522	0.261092	0.0312109	0	0	-0.378167	0.0340699	0.0984992	0.112444	-0.211815	0.0733982	0.268049	1.30571	0	0	0.146836	-0.226989	0.382194	0.339233	1.32538	0	0
1.88	2.96801	1.41963	-1.46824	0.814164	1.04023	0.999005	-0.313	-0.049382	-0.372087	0.418731	0.241814	0	0	0.225026	-0.0258068	-0.275696	0.279164	0.00924114	0	0	-0.373387	0.0263873	0.102195	0.102595	-0.211377	0.0688049	0.268501	1.30998	0	0	0.138031	-0.226173	0.378531	0.33941	1.32941	0	0
1.89	3.01119	1.41871	-1.51516	0.813124	1.05208	0.998179	-0.307015	-0.0667048	-0.363027	0.455852	0.23553	0	0	0.226372	-0.0200818	-0.27423	0.302647	-0.00917887	0	0	-0.369684	0.0175326	0.104112	0.0939022	-0.210505	0.0643886	0.269179	1.31442	0	0	0.130746	-0.22524	0.373686	0.338995	1.3341	0	0
1.9	3.06468	1.41894	-1.57079	0.812061	1.06364	0.997762	-0.29489	-0.0860523	-0.353052	0.500162	0.222943	0	0	0.232768	-0.014237	-0.269668	0.334916	-0.0148079	0	0	-0.36558	0.0069462	0.104481	0.085735	-0.208549	0.057908	0.270951	1.32088	0	0	0.125103	-0.224362	0.366125	0.337913	1.34195	0	0
1.91	3.11518	1.41984	-1.62222	0.810938	1.0749	0.997741	-0.277516	-0.10505	-0.342654	0.549523	0.202681	0	0	0.240469	-0.008445	-0.260702	0.368387	-0.0141335	0	0	-0.361286	-0.00278427	0.104708	0.0807173	-0.203783	0.0274045	0.26745	1.3547	0	0	0.121882	-0.222806	0.359046	0.334568	1.35112	0	0
1.92	-3.10961	1.42186	-1.68181	0.80976	1.08592	0.997796	-0.25235	-0.126621	-0.330107	0.607282	0.174753	0	0	0.247077	-0.000323218	-0.252217	0.395822	-0.0160371	0	0	-0.355188	-0.0134509	0.105099	0.0722381	-0.203264	0.0323581	0.272608	1.34344	0	0	0.118033	-0.225091	0.376053	0.336838	1.32712	0	0
1.93	-3.05047	1.42454	-1.74223	0.808503	1.09685	0.997765	-0.222416	-0.147955	-0.314489	0.667764	0.139507	0	0	0.251648	0.00815447	-0.250988	0.416571	-0.0204792	0	0	-0.347589	-0.0234335	0.105693	0.0646525	-0.203389	0.0349628	0.276126	1.33715	0	0	0.115233	-0.226272	0.387522	0.336362	1.31464	0	0
1.94	-2.98952	1.43068	-1.8063	0.80725	1.1074	0.997301	-0.183579	-0.168586	-0.293896	0.732207	0.0996538	0	0	0.257676	0.0155895	-0.255885	0.432532	-0.0200999	0	0	-0.33598	-0.0325207	0.108264	0.058235	-0.204877	0.0381412	0.27837	1.33095	0	0	0.113117	-0.227466	0.401142	0.335243	1.30248	0	0
1.95	-2.93334	1.43734	-1.86658	0.806073	1.11763	0.996658	-0.14104	-0.186303	-0.269538	0.797789	0.0573182	0	0	0.261242	0.0218789	-0.262273	0.443744	-0.0111471	0	0	-0.323968	-0.0399272	0.111803	0.0533174	-0.207076	0.0415951	0.279605	1.32478	0	0	0.111094	-0.229233	0.415864	0.33512	1.28937	0	0
1.96	-2.84286	1.45091	-1.96535	0.805225	1.12733	0.995242	-0.0830504	-0.203167	-0.235732	0.869392	0.0145109	0	0	0.272217	0.0280352	-0.272411	0.452575	0.0022008	0	0	-0.303365	-0.0488484	0.118768	0.0515404	-0.206701	0.0234129	0.27446	1.34851	0	0	0.111055	-0.223921	0.390117	0.322409	1.33206	0	0
1.97	-2.71414	1.46272	-2.10327	0.804548	1.1366	0.993812	-0.0222048	-0.218711	-0.198647	0.939902	-0.0279618	0	0	0.282097	0.0357549	-0.284727	0.457383	0.013348	0	0	-0.282549	-0.0600123	0.125679	0.048306	-0.208459	0.0324071	0.275527	1.33868	0	0	0.108279	-0.22539	0.393662	0.322177	1.33251	0	0
1.98	-2.54658	1.46989	-2.27944	0.803966	1.14552	0.992681	0.0380664	-0.233303	-0.160797	1.00702	-0.0700091	0	0	0.289955	0.0461602	-0.29673	0.459145	0.0222784	0	0	-0.26382	-0.073579	0.13092	0.0479634	-0.20792	0.0327291	0.273886	1.34137	0	0	0.10592	-0.227367	0.391845	0.322833	1.33945	0	0
1.99	-2.37281	1.47159	-2.46062	0.803512	1.15423	0.992003	0.0946594	-0.245811	-0.124341	1.06914	-0.113404	0	0	0.294911	0.0581057	-0.30563	0.459309	0.0298872	0	0	-0.248209	-0.0879701	0.134243	0.0487167	-0.206347	0.0336545	0.27286	1.34443	0	0	0.103265	-0.230883	0.392213	0.326458	1.34223	0	0
2	-2.25717	1.46915	-2.58041	0.803004	1.16296	0.992098	0.140876	-0.25438	-0.0944651	1.12287	-0.158171	0	0	0.29297	0.0692442	-0.308471	0.457602	0.0366848	0	0	-0.239202	-0.0993116	0.134293	0.0499067	-0.204719	0.0344217	0.27349	1.34758	0	0	0.101461	-0.234136	0.393734	0.329629	1.34059	0	0
2.01	-2.19807	1.46578	-2.64103	0.802394	1.17175	0.992826	0.178265	-0.259252	-0.070532	1.16931	-0.198442	0	0	0.285195	0.0787299	-0.305898	0.453741	0.0432979	0	0	-0.235319	-0.10694	0.132011	0.0512265	-0.203399	0.0353375	0.275108	1.34963	0	0	0.100469	-0.23602	0.394176	0.331193	1.33761	0	0
2.02	-2.17075	1.4639	-2.66828	0.801681	1.18048	0.993956	0.210937	-0.259938	-0.0497931	1.21104	-0.223882	0	0	0.274033	0.0863508	-0.299057	0.44688	0.0496562	0	0	-0.233787	-0.110787	0.128784	0.05242	-0.202848	0.0359579	0.277736	1.35117	0	0	0.100374	-0.236119	0.393218	0.330751	1.33443	0	0
2.03	-2.15979	1.46352	-2.67811	0.800943	1.18909	0.995209	0.241254	-0.258182	-0.0322649	1.24994	-0.229143	0	0	0.261149	0.0922218	-0.291149	0.438329	0.0556209	0	0	-0.232696	-0.112375	0.126502	0.0493021	-0.206048	0.0612223	0.288676	1.31762	0	0	0.0963268	-0.25046	0.476503	0.355262	1.21145	0	0
2.04	-2.15912	1.46574	-2.67601	0.800074	1.1978	0.996659	0.269563	-0.256552	-0.0231647	1.28352	-0.221891	0	0	0.247473	0.0953768	-0.282799	0.428513	0.0607514	0	0	-0.232254	-0.109545	0.12183	0.0518327	-0.205677	0.0528411	0.288491	1.32834	0	0	0.106044	-0.228288	0.373889	0.313744	1.34528	0	0
2.05	-2.18172	1.46815	-2.65018	0.799379	1.20636	0.998294	0.293291	-0.251924	-0.0151076	1.3103	-0.2082	0	0	0.231562	0.0962849	-0.278099	0.418758	0.0653522	0	0	-0.233969	-0.10604	0.118841	0.0528065	-0.206642	0.0553004	0.291056	1.32358	0	0	0.109699	-0.22594	0.37589	0.30816	1.33972	0	0
2.06	-2.20273	1.48202	-2.62614	0.798578	1.21535	0.998705	0.320982	-0.235221	-0.00962556	1.33223	-0.193138	0	0	0.222943	0.0860899	-0.272798	0.413436	0.0779912	0	0	-0.226252	-0.0909313	0.119296	0.0498679	-0.210919	0.0611568	0.295225	1.31705	0	0	0.109597	-0.22239	0.383402	0.304778	1.32795	0	0
